<?xml version="1.0" encoding="UTF-8"?><svg id="Layer_1" xmlns="http://www.w3.org/2000/svg" viewBox="0 0 509.57 405.75"><defs><style>.cls-1{fill:#005596;}</style></defs><path class="cls-1" d="m227.01,18.21c2.99-12.7,15.68-20.58,28.33-17.57,12.7,2.99,20.51,15.71,17.54,28.41-2.99,12.71-71.67,201.6-71.67,201.6,0,0,22.81-199.72,25.8-212.44"/><path class="cls-1" d="m104.75,61.93c-3.84-12.46,3.1-25.73,15.48-29.63,12.41-3.88,25.64,3.06,29.5,15.53,3.89,12.48,33.74,187.53,33.74,187.53,0,0-74.82-160.97-78.72-173.42"/><path class="cls-1" d="m19.32,166.15c-10.48-7.69-12.77-22.49-5.04-33.02,7.69-10.54,22.44-12.82,32.93-5.08,10.51,7.73,119.08,116.88,119.08,116.88,0,0-136.46-71.05-146.98-78.78"/><path class="cls-1" d="m23.5,289.91C10.44,289.88-.05,279.27,0,266.23c.01-13.07,10.6-23.62,23.61-23.57,13,.03,141.33,23.92,141.33,23.92,0,0-128.47,23.38-141.44,23.33"/><path class="cls-1" d="m103.48,383.31c-9.49,8.91-24.4,8.44-33.29-1.08-8.91-9.54-8.45-24.51,1.05-33.43,9.5-8.91,102.09-63.56,102.09-63.56,0,0-60.36,89.16-69.85,98.07"/><path class="cls-1" d="m216.02,382.65c.26,12.53-9.7,22.86-22.17,23.1-12.49.28-22.81-9.72-23.08-22.24-.25-12.53,20.89-91.21,20.89-91.21,0,0,24.16,77.8,24.37,90.35"/><path class="cls-1" d="m476.18,121.48c12.06-5.35,26.14.03,31.4,11.95,5.28,11.96-.28,25.96-12.37,31.29-12.09,5.35-267.39,92.47-267.39,92.47,0,0,236.29-130.34,248.36-135.7"/><path class="cls-1" d="m358.11,42.53c8.99-10.38,24.23-11.91,34.08-3.38,9.85,8.53,10.54,23.88,1.63,34.29-8.99,10.42-176.06,168.16-176.06,168.16,0,0,131.38-188.66,140.34-199.07"/></svg>